<svg width="123" height="108" viewBox="0 0 123 108" fill="none" xmlns="http://www.w3.org/2000/svg">
<path d="M14.268 79L23.534 32.424H5.166L7.38 21.6H57.4L55.186 32.424H36.9L27.552 79H14.268ZM53.0675 79L64.5475 21.6H87.7535C94.9148 21.6 100.436 23.1853 104.317 26.356C108.253 29.472 110.221 33.8453 110.221 39.476C110.221 44.2867 109.101 48.496 106.859 52.104C104.618 55.6573 101.393 58.3907 97.1835 60.304C93.0288 62.2173 88.0815 63.174 82.3415 63.174H63.7275L70.7795 57.106L66.4335 79H53.0675ZM70.4515 58.664L65.7775 52.35H82.9155C87.2888 52.35 90.6781 51.366 93.0835 49.398C95.5435 47.3753 96.7735 44.4507 96.7735 40.624C96.7735 37.836 95.8441 35.786 93.9855 34.474C92.1268 33.1073 89.5028 32.424 86.1135 32.424H69.9595L77.0115 25.946L70.4515 58.664Z" fill="#F55139"/>
<path d="M23.696 79V32.424H5.328V21.6H55.348V32.424H36.98V79H23.696ZM62.4955 79V21.6H87.3415C92.4801 21.6 96.9081 22.4473 100.625 24.142C104.343 25.782 107.213 28.16 109.235 31.276C111.258 34.392 112.269 38.1093 112.269 42.428C112.269 46.692 111.258 50.382 109.235 53.498C107.213 56.614 104.343 59.0193 100.625 60.714C96.9081 62.354 92.4801 63.174 87.3415 63.174H69.8755L75.7795 57.188V79H62.4955ZM75.7795 58.664L69.8755 52.35H86.6035C90.7035 52.35 93.7648 51.4753 95.7875 49.726C97.8101 47.9767 98.8215 45.544 98.8215 42.428C98.8215 39.2573 97.8101 36.7973 95.7875 35.048C93.7648 33.2987 90.7035 32.424 86.6035 32.424H69.8755L75.7795 26.11V58.664Z" fill="#EBE7D9"/>
</svg>
