<svg width="176" height="131" viewBox="0 0 176 131" fill="none" xmlns="http://www.w3.org/2000/svg">
<rect x="0.5" y="0.5" width="155" height="110" stroke="#F3F3F3"/>
<rect x="19.5" y="14.5" width="156" height="116" stroke="#F3F3F3"/>
<path d="M66.078 94H58.616V41.11H36.64V36.6H88.054V41.11H66.078V94ZM106.995 70.056V94H99.5334V36.6H118.721C121.892 36.6 124.653 37.0647 127.003 37.994C129.354 38.9233 131.295 40.1807 132.825 41.766C134.411 43.2967 135.586 45.128 136.351 47.26C137.117 49.3373 137.499 51.524 137.499 53.82C137.499 56.2253 137.062 58.494 136.187 60.626C135.313 62.7033 134.001 64.562 132.251 66.202C130.557 67.7873 128.425 69.0447 125.855 69.974C123.286 70.9033 120.334 71.368 116.999 71.368C115.031 71.368 113.227 71.2587 111.587 71.04C109.947 70.7667 108.417 70.4387 106.995 70.056ZM106.995 40.208V66.694C108.143 67.1313 109.428 67.432 110.849 67.596C112.271 67.7053 113.829 67.76 115.523 67.76C117.983 67.76 120.088 67.35 121.837 66.53C123.587 65.71 125.035 64.644 126.183 63.332C127.331 62.02 128.151 60.5713 128.643 58.986C129.19 57.346 129.463 55.7333 129.463 54.148C129.463 52.508 129.163 50.868 128.561 49.228C128.015 47.5333 127.167 46.03 126.019 44.718C124.871 43.3513 123.423 42.258 121.673 41.438C119.924 40.618 117.901 40.208 115.605 40.208H106.995Z" fill="#F3F3F3"/>
</svg>
