<svg width="20" height="20" viewBox="0 0 20 20" fill="none" xmlns="http://www.w3.org/2000/svg">
<path d="M9.9968 6.49995L5.50084 11.004L6.9271 12.4027L9.99933 9.32495L13.0771 12.3972L14.5008 10.9959L9.9968 6.49995ZM9.99097 -4.97255e-05C11.3743 -0.00129129 12.6745 0.260042 13.8917 0.78395C15.1088 1.30786 16.1678 2.01941 17.0686 2.9186C17.9694 3.81779 18.6828 4.87548 19.2089 6.09168C19.735 7.30787 19.9987 8.60764 19.9999 9.99097C20.0012 11.3743 19.7398 12.6745 19.2159 13.8917C18.692 15.1088 17.9805 16.1678 17.0813 17.0686C16.1821 17.9694 15.1244 18.6829 13.9082 19.2089C12.692 19.735 11.3922 19.9987 10.0089 19.9999C8.62558 20.0012 7.32535 19.7399 6.10821 19.2159C4.89107 18.692 3.8321 17.9805 2.93129 17.0813C2.03048 16.1821 1.31704 15.1244 0.790945 13.9082C0.264853 12.692 0.0011859 11.3923 -5.56555e-05 10.0089C-0.00129722 8.62559 0.260036 7.32535 0.783944 6.10822C1.30785 4.89108 2.0194 3.83211 2.91859 2.9313C3.81778 2.03049 4.87548 1.31704 6.09167 0.790951C7.30787 0.264859 8.60763 0.00119183 9.99097 -4.97255e-05ZM9.99276 1.99995C7.75943 2.00195 5.86846 2.77865 4.31985 4.33004C2.77124 5.88143 1.99794 7.77379 1.99994 10.0071C2.00195 12.2405 2.77865 14.1314 4.33004 15.68C5.88143 17.2286 7.77379 18.0019 10.0071 17.9999C12.2405 17.9979 14.1314 17.2212 15.68 15.6699C17.2286 14.1185 18.0019 12.2261 17.9999 9.99277C17.9979 7.75943 17.2212 5.86846 15.6698 4.31985C14.1185 2.77125 12.2261 1.99794 9.99276 1.99995Z" fill="white"/>
</svg>
