<svg width="578" height="136" viewBox="0 0 578 136" fill="none" xmlns="http://www.w3.org/2000/svg">
<path d="M20.6836 30.1335L122.681 30.8177L121.997 132.815L19.9994 132.131L40.741 81.2692L20.6836 30.1335Z" fill="url(#paint0_linear_103_28)"/>
<path d="M82.1992 102.548L121.997 132.815L122.198 102.816L82.1992 102.548Z" fill="black" fill-opacity="0.4"/>
<path d="M557.671 33.7357L455.674 33.0514L454.989 135.049L556.987 135.733L536.93 84.5977L557.671 33.7357Z" fill="url(#paint1_linear_103_28)"/>
<path d="M495.19 105.318L454.99 135.049L455.191 105.05L495.19 105.318Z" fill="black" fill-opacity="0.4"/>
<rect width="413" height="102" transform="translate(82.8833 0.550049) rotate(0.384339)" fill="url(#paint2_linear_103_28)"/>
<path d="M145.967 52.1904C145.987 49.2785 146.634 46.6927 147.909 44.4333C149.185 42.1458 150.946 40.3795 153.195 39.1346C155.471 37.8618 158.038 37.235 160.894 37.2542C164.394 37.2777 167.383 38.2217 169.863 40.0864C172.342 41.9511 173.991 44.4822 174.81 47.6798L166.914 47.6268C166.334 46.3909 165.501 45.4473 164.413 44.796C163.353 44.1448 162.138 43.8147 160.766 43.8055C158.554 43.7906 156.757 44.5486 155.374 46.0794C153.992 47.6101 153.292 49.6635 153.275 52.2394C153.258 54.8154 153.93 56.8779 155.291 58.4271C156.653 59.9763 158.44 60.7583 160.652 60.7731C162.024 60.7823 163.244 60.4685 164.312 59.8316C165.409 59.195 166.255 58.2626 166.851 57.0346L174.747 57.0876C173.886 60.2739 172.203 62.7826 169.698 64.6139C167.194 66.4171 164.192 67.307 160.692 67.2835C157.836 67.2644 155.279 66.6172 153.019 65.342C150.788 64.039 149.05 62.2493 147.805 59.9729C146.56 57.6965 145.948 55.1023 145.967 52.1904ZM189.743 67.6044C187.447 67.589 185.378 67.0851 183.537 66.0927C181.723 65.1005 180.291 63.6909 179.239 61.8638C178.215 60.0369 177.712 57.9055 177.728 55.4695C177.744 53.0616 178.29 50.9512 179.367 49.1384C180.443 47.2975 181.908 45.8933 183.763 44.9258C185.617 43.9582 187.693 43.4821 189.989 43.4975C192.285 43.5129 194.353 44.0168 196.195 45.0092C198.036 46.0015 199.482 47.4253 200.534 49.2804C201.586 51.1075 202.104 53.225 202.087 55.6329C202.071 58.0409 201.511 60.1652 200.407 62.0058C199.33 63.8186 197.851 65.2087 195.969 66.1761C194.114 67.1437 192.039 67.6198 189.743 67.6044ZM189.785 61.3885C191.157 61.3977 192.322 60.9015 193.281 59.8999C194.267 58.8985 194.767 57.4599 194.78 55.5839C194.792 53.7079 194.326 52.2628 193.381 51.2484C192.463 50.2342 191.319 49.7226 189.947 49.7134C188.547 49.704 187.382 50.2002 186.451 51.2019C185.52 52.1757 185.049 53.6146 185.036 55.5185C185.023 57.3945 185.462 58.8395 186.351 59.8535C187.268 60.8676 188.413 61.3793 189.785 61.3885ZM235.881 43.8893C238.793 43.9089 241.097 44.8064 242.793 46.5818C244.517 48.3574 245.369 50.8131 245.348 53.9491L245.256 67.6408L238.116 67.5929L238.202 54.8672C238.212 53.3552 237.814 52.1905 237.007 51.3731C236.229 50.5278 235.139 50.1005 233.74 50.0911C232.34 50.0817 231.231 50.4943 230.413 51.3288C229.624 52.1356 229.224 53.2949 229.214 54.8069L229.128 67.5326L221.989 67.4847L222.074 54.759C222.084 53.247 221.686 52.0823 220.879 51.2649C220.101 50.4196 219.012 49.9923 217.612 49.9829C216.212 49.9735 215.103 50.3861 214.286 51.2207C213.496 52.0274 213.096 53.1867 213.086 54.6987L213.001 67.4244L205.819 67.3762L205.976 43.9407L213.158 43.9889L213.138 46.9289C213.873 45.9538 214.83 45.1902 216.01 44.6381C217.19 44.058 218.522 43.7729 220.006 43.7829C221.769 43.7947 223.335 44.1832 224.702 44.9484C226.097 45.7138 227.181 46.7991 227.956 48.2043C228.777 46.9218 229.89 45.8792 231.295 45.0766C232.701 44.274 234.229 43.8783 235.881 43.8893ZM254.064 41.8273C252.804 41.8188 251.771 41.4479 250.964 40.7144C250.185 39.9532 249.799 39.0266 249.806 37.9346C249.814 36.8146 250.212 35.8933 251.001 35.1706C251.818 34.42 252.857 34.049 254.116 34.0574C255.348 34.0657 256.354 34.4505 257.133 35.2117C257.94 35.9451 258.34 36.8718 258.332 37.9918C258.325 39.0838 257.913 40.005 257.096 40.7556C256.307 41.4783 255.296 41.8355 254.064 41.8273ZM257.618 44.2872L257.461 67.7226L250.279 67.6745L250.436 44.239L257.618 44.2872ZM277.104 44.1659C279.848 44.1843 282.026 45.0949 283.638 46.8978C285.278 48.6728 286.087 51.1143 286.067 54.2222L285.975 67.9139L278.835 67.866L278.92 55.1403C278.931 53.5723 278.533 52.3516 277.727 51.4782C276.921 50.6048 275.832 50.1635 274.46 50.1543C273.088 50.1451 271.993 50.5717 271.175 51.4343C270.357 52.2968 269.943 53.512 269.933 55.08L269.847 67.8057L262.665 67.7576L262.823 44.3221L270.004 44.3703L269.984 47.4782C270.718 46.4471 271.704 45.6417 272.94 45.062C274.176 44.4542 275.564 44.1555 277.104 44.1659ZM300.029 44.2357C301.681 44.2467 303.12 44.5924 304.348 45.2726C305.603 45.9531 306.563 46.8415 307.228 47.938L307.25 44.6201L314.432 44.6683L314.275 68.0618C314.261 70.2177 313.814 72.1608 312.934 73.8909C312.082 75.6492 310.771 77.0404 309 78.0646C307.257 79.0889 305.084 79.5924 302.48 79.5749C299.008 79.5516 296.199 78.7067 294.055 77.0403C291.909 75.4019 290.692 73.1817 290.403 70.3797L297.501 70.4273C297.719 71.3248 298.246 72.0283 299.083 72.5379C299.919 73.0756 300.953 73.3485 302.185 73.3568C303.669 73.3667 304.848 72.9406 305.722 72.0785C306.624 71.2445 307.081 69.8895 307.093 68.0136L307.116 64.6957C306.408 65.7829 305.436 66.6724 304.2 67.3642C302.963 68.0279 301.519 68.3542 299.867 68.3431C297.935 68.3302 296.188 67.8284 294.627 66.8379C293.066 65.8194 291.829 64.3971 290.918 62.5709C290.034 60.717 289.6 58.586 289.616 56.1781C289.633 53.7701 290.095 51.6592 291.003 49.8452C291.939 48.0315 293.194 46.6399 294.769 45.6704C296.344 44.7009 298.097 44.2227 300.029 44.2357ZM307.172 56.3378C307.184 54.5459 306.689 53.1285 305.688 52.0858C304.715 51.0432 303.515 50.5172 302.087 50.5076C300.659 50.498 299.437 51.0078 298.422 52.0371C297.436 53.0385 296.936 54.4351 296.924 56.2271C296.912 58.0191 297.393 59.4503 298.365 60.5209C299.366 61.5636 300.581 62.0898 302.009 62.0993C303.437 62.1089 304.644 61.599 305.631 60.5696C306.646 59.5404 307.16 58.1298 307.172 56.3378ZM339.037 68.5639C336.881 68.5494 334.951 68.1864 333.248 67.475C331.545 66.7636 330.18 65.7184 329.153 64.3395C328.154 62.9607 327.633 61.3052 327.59 59.3729L335.234 59.4241C335.339 60.5169 335.711 61.3594 336.351 61.9517C336.991 62.516 337.829 62.8016 338.865 62.8086C339.929 62.8157 340.771 62.5834 341.39 62.1115C342.009 61.6116 342.322 60.9277 342.328 60.0597C342.333 59.3318 342.085 58.7281 341.584 58.2487C341.111 57.7695 340.512 57.3735 339.786 57.0606C339.088 56.7479 338.082 56.3912 336.769 55.9904C334.869 55.3896 333.319 54.7912 332.119 54.1951C330.919 53.5991 329.889 52.7241 329.028 51.5703C328.168 50.4166 327.744 48.9157 327.757 47.0677C327.775 44.3238 328.783 42.1885 330.782 40.6619C332.78 39.1072 335.375 38.3406 338.567 38.362C341.815 38.3838 344.428 39.1854 346.405 40.7667C348.383 42.32 349.432 44.4831 349.554 47.2559L341.784 47.2038C341.734 46.2515 341.389 45.5071 340.749 44.9708C340.109 44.4065 339.285 44.121 338.277 44.1142C337.409 44.1084 336.707 44.3417 336.172 44.8141C335.637 45.2585 335.367 45.9147 335.361 46.7827C335.354 47.7347 335.797 48.4797 336.69 49.0177C337.582 49.5557 338.978 50.1391 340.878 50.7678C342.778 51.4246 344.314 52.0509 345.486 52.6468C346.686 53.2428 347.716 54.1038 348.576 55.2296C349.437 56.3554 349.861 57.8002 349.849 59.5642C349.838 61.2442 349.394 62.7672 348.517 64.1334C347.667 65.4997 346.428 66.5834 344.799 67.3845C343.169 68.1856 341.249 68.5787 339.037 68.5639ZM364.876 68.7792C362.58 68.7638 360.511 68.2599 358.67 67.2675C356.856 66.2753 355.424 64.8657 354.372 63.0386C353.348 61.2117 352.844 59.0803 352.861 56.6443C352.877 54.2364 353.423 52.126 354.499 50.3132C355.576 48.4724 357.041 47.0682 358.896 46.1006C360.75 45.133 362.825 44.6569 365.121 44.6723C367.417 44.6877 369.486 45.1916 371.327 46.184C373.169 47.1763 374.615 48.6001 375.667 50.4552C376.719 52.2823 377.236 54.3998 377.22 56.8077C377.204 59.2157 376.644 61.34 375.539 63.1806C374.463 64.9934 372.984 66.3835 371.101 67.3509C369.247 68.3185 367.172 68.7946 364.876 68.7792ZM364.917 62.5633C366.289 62.5725 367.455 62.0763 368.413 61.0748C369.4 60.0733 369.9 58.6347 369.912 56.7587C369.925 54.8828 369.459 53.4376 368.513 52.4232C367.596 51.4091 366.452 50.8974 365.08 50.8882C363.68 50.8788 362.514 51.375 361.584 52.3767C360.653 53.3505 360.181 54.7894 360.169 56.6933C360.156 58.5693 360.594 60.0143 361.484 61.0283C362.401 62.0424 363.545 62.5541 364.917 62.5633ZM391.617 68.9586C389.321 68.9432 387.253 68.4393 385.411 67.4469C383.598 66.4547 382.165 65.0451 381.114 63.218C380.09 61.3911 379.586 59.2597 379.602 56.8237C379.619 54.4158 380.165 52.3054 381.241 50.4926C382.317 48.6517 383.783 47.2475 385.637 46.28C387.492 45.3124 389.567 44.8363 391.863 44.8517C394.159 44.8671 396.228 45.371 398.069 46.3633C399.91 47.3557 401.357 48.7795 402.408 50.6346C403.46 52.4617 403.978 54.5792 403.962 56.9871C403.946 59.3951 403.385 61.5194 402.281 63.36C401.205 65.1728 399.725 66.5629 397.843 67.5303C395.988 68.4979 393.913 68.974 391.617 68.9586ZM391.659 62.7427C393.031 62.7519 394.196 62.2557 395.155 61.2541C396.142 60.2527 396.641 58.8141 396.654 56.9381C396.667 55.0621 396.2 53.617 395.255 52.6026C394.338 51.5884 393.193 51.0767 391.821 51.0675C390.421 51.0582 389.256 51.5543 388.325 52.5561C387.395 53.5299 386.923 54.9688 386.91 56.8727C386.898 58.7487 387.336 60.1937 388.225 61.2077C389.142 62.2218 390.287 62.7335 391.659 62.7427ZM422.132 45.1387C424.876 45.1571 427.054 46.0678 428.666 47.8706C430.306 49.6457 431.115 52.0872 431.095 55.1951L431.003 68.8868L423.863 68.8389L423.948 56.1132C423.959 54.5452 423.561 53.3245 422.755 52.4511C421.949 51.5777 420.86 51.1363 419.488 51.1271C418.116 51.1179 417.021 51.5446 416.203 52.4071C415.385 53.2697 414.971 54.4849 414.961 56.0529L414.875 68.7786L407.693 68.7304L407.851 45.2949L415.032 45.3431L415.012 48.451C415.746 47.42 416.732 46.6145 417.968 46.0348C419.204 45.4271 420.592 45.1284 422.132 45.1387Z" fill="white"/>
<defs>
<linearGradient id="paint0_linear_103_28" x1="71.6824" y1="30.4756" x2="70.9982" y2="132.473" gradientUnits="userSpaceOnUse">
<stop stop-color="#FF0055"/>
<stop offset="1" stop-color="#C70042"/>
</linearGradient>
<linearGradient id="paint1_linear_103_28" x1="506.673" y1="33.3936" x2="505.988" y2="135.391" gradientUnits="userSpaceOnUse">
<stop stop-color="#FF0055"/>
<stop offset="1" stop-color="#C70042"/>
</linearGradient>
<linearGradient id="paint2_linear_103_28" x1="206.5" y1="0" x2="206.5" y2="102" gradientUnits="userSpaceOnUse">
<stop stop-color="#FF0055"/>
<stop offset="1" stop-color="#C70042"/>
</linearGradient>
</defs>
</svg>
