<svg width="85" height="79" viewBox="0 0 85 79" fill="none" xmlns="http://www.w3.org/2000/svg">
<path fill-rule="evenodd" clip-rule="evenodd" d="M69.7356 7.808L38.7579 36.3309C36.9394 38.0053 36.9368 40.7268 38.7582 42.4038C40.5759 44.0775 43.5325 44.081 45.3537 42.4041L76.32 13.8918V23.4271C76.32 25.5769 78.2183 27.328 80.56 27.328C82.8969 27.328 84.8 25.5815 84.8 23.4271V3.90091C84.8 2.8265 84.3259 1.85169 83.5592 1.14527C82.7914 0.437649 81.7327 0 80.5634 0H59.3567C57.0218 0 55.12 1.74788 55.12 3.904C55.12 6.05573 57.0168 7.808 59.3567 7.808H69.7356ZM84.8 46.848V28.2895V68.349C84.8 73.7233 80.5948 78.08 75.4009 78.08H9.39909C4.20812 78.08 0 73.7148 0 68.349V9.73101C0 4.35672 4.20525 0 9.39909 0H54.6605H33.92C36.2617 0 38.16 1.74788 38.16 3.904C38.16 6.06012 36.2617 7.808 33.92 7.808H10.8945C9.5456 7.808 8.48 8.97406 8.48 10.4125V67.6675C8.48 69.08 9.56099 70.272 10.8945 70.272H73.9055C75.2544 70.272 76.32 69.1059 76.32 67.6675V46.848C76.32 44.6919 78.2183 42.944 80.56 42.944C82.9017 42.944 84.8 44.6919 84.8 46.848Z" fill="#F55139"/>
</svg>
